<?xml version="1.0" standalone="no"?>
<!DOCTYPE svg PUBLIC "-//W3C//DTD SVG 20010904//EN"
 "http://www.w3.org/TR/2001/REC-SVG-20010904/DTD/svg10.dtd">
<svg version="1.0" xmlns="http://www.w3.org/2000/svg"
 width="1219.000000pt" height="1219.000000pt" viewBox="0 0 1219.000000 1219.000000"
 preserveAspectRatio="xMidYMid meet">

<g transform="translate(0.000000,1219.000000) scale(0.100000,-0.100000)"
fill="#1B4BDD" stroke="none">
<path d="M5970 12169 c-173 -26 -113 6 -2540 -1383 -1257 -720 -2304 -1322
-2326 -1337 -168 -114 -309 -316 -365 -524 -22 -78 -22 -99 -29 -900 -4 -451
-9 -1675 -11 -2720 l-4 -1900 23 -89 c28 -110 94 -251 155 -332 57 -75 163
-175 231 -219 28 -17 1064 -621 2301 -1341 1317 -766 2283 -1322 2330 -1341
209 -83 467 -84 672 -3 78 31 4579 2605 4678 2675 69 49 176 158 223 226 50
74 99 178 128 275 l27 89 7 825 c4 454 9 1678 11 2720 4 2098 9 1937 -60 2115
-61 160 -200 330 -341 422 -125 80 -4546 2647 -4608 2675 -133 60 -353 90
-502 67z m232 -772 c67 -36 4398 -2553 4459 -2592 21 -14 46 -42 57 -67 l21
-43 -10 -2615 c-9 -2442 -11 -2617 -27 -2649 -9 -19 -33 -47 -52 -62 -19 -15
-1043 -604 -2275 -1310 -2026 -1160 -2245 -1283 -2291 -1287 -34 -3 -61 1 -82
12 -76 39 -4489 2610 -4506 2624 -10 10 -27 35 -36 57 -17 38 -18 170 -8 2650
9 2507 10 2612 28 2652 11 26 33 51 57 66 61 38 4506 2584 4523 2590 36 13 83
5 142 -26z"/>
<path d="M5193 9360 c-44 -10 -63 -27 -84 -75 -25 -56 -2109 -5774 -2109
-5785 0 -6 9 -19 20 -30 19 -19 33 -20 371 -20 372 0 386 2 416 49 6 9 486
1320 1067 2914 1136 3113 1071 2924 1010 2947 -30 12 -644 12 -691 0z"/>
<path d="M6330 9360 c-19 -5 -44 -20 -55 -35 -23 -30 -2125 -5789 -2125 -5821
0 -54 3 -54 381 -54 404 0 396 -2 434 83 13 29 492 1338 1065 2910 767 2103
1040 2865 1036 2883 -4 14 -18 29 -32 34 -31 12 -654 12 -704 0z"/>
<path d="M7209 8726 c-18 -9 -56 -102 -196 -486 -96 -261 -175 -491 -175 -510
0 -22 270 -776 757 -2110 416 -1141 763 -2089 771 -2106 30 -64 40 -65 434
-62 l354 3 14 25 c13 23 -45 186 -932 2618 -520 1426 -950 2601 -955 2611 -13
24 -44 32 -72 17z"/>
<path d="M6626 7154 c-9 -8 -16 -17 -16 -18 0 -1 -79 -218 -175 -482 -134
-365 -175 -486 -170 -509 3 -16 220 -619 483 -1340 459 -1258 480 -1311 512
-1332 33 -23 37 -23 382 -23 222 0 356 4 369 10 12 7 19 21 19 40 0 42 -1315
3642 -1337 3657 -23 17 -48 16 -67 -3z"/>
</g>
</svg>
