<svg width="21" height="20" viewBox="0 0 21 20" fill="none" xmlns="http://www.w3.org/2000/svg">
  <path d="M10.6665 6.66667V13.3333M7.33317 10H13.9998M7.1665 17.5H14.1665C15.5666 17.5 16.2667 17.5 16.8015 17.2275C17.2719 16.9878 17.6543 16.6054 17.894 16.135C18.1665 15.6002 18.1665 14.9001 18.1665 13.5V6.5C18.1665 5.09987 18.1665 4.3998 17.894 3.86502C17.6543 3.39462 17.2719 3.01217 16.8015 2.77248C16.2667 2.5 15.5666 2.5 14.1665 2.5H7.1665C5.76637 2.5 5.06631 2.5 4.53153 2.77248C4.06112 3.01217 3.67867 3.39462 3.43899 3.86502C3.1665 4.3998 3.1665 5.09987 3.1665 6.5V13.5C3.1665 14.9001 3.1665 15.6002 3.43899 16.135C3.67867 16.6054 4.06112 16.9878 4.53153 17.2275C5.06631 17.5 5.76637 17.5 7.1665 17.5Z" stroke="#697586" stroke-width="1.66667" stroke-linecap="round" stroke-linejoin="round"/>
</svg>