<svg width="22" height="22" viewBox="0 0 22 22" fill="none" xmlns="http://www.w3.org/2000/svg">
<g clip-path="url(#clip0_5527_16813)">
<path d="M19.8008 6.6H15.4008C15.208 6.6 15.0229 6.63334 14.8508 6.69436V1.65C14.8508 0.74018 14.1106 0 13.2008 0H8.80078C7.89096 0 7.15078 0.74018 7.15078 1.65V12.1944C6.97865 12.1333 6.79354 12.1 6.60078 12.1H2.20078C1.29096 12.1 0.550781 12.8402 0.550781 13.75V21.45C0.550781 21.7537 0.797035 22 1.10078 22H20.9008C21.2045 22 21.4508 21.7537 21.4508 21.45V8.25C21.4508 7.34018 20.7106 6.6 19.8008 6.6ZM1.65078 13.75C1.65078 13.4467 1.89751 13.2 2.20078 13.2H6.60078C6.90405 13.2 7.15078 13.4467 7.15078 13.75V20.9H1.65078V13.75ZM8.25078 1.65C8.25078 1.34673 8.49751 1.1 8.80078 1.1H13.2008C13.5041 1.1 13.7508 1.34673 13.7508 1.65V20.9H8.25078V1.65ZM20.3508 20.9H14.8508V8.25C14.8508 7.94673 15.0975 7.7 15.4008 7.7H19.8008C20.1041 7.7 20.3508 7.94673 20.3508 8.25V20.9Z" fill="#8098F9"/>
</g>
<defs>
<clipPath id="clip0_5527_16813">
<rect width="22" height="22" fill="white"/>
</clipPath>
</defs>
</svg>
