<svg width="24" height="24" viewBox="0 0 24 24" fill="none" xmlns="http://www.w3.org/2000/svg">
<path fill-rule="evenodd" clip-rule="evenodd" d="M11.6743 2.63236C11.6743 2.63237 11.6743 2.63236 11.6743 2.63236L4.17394 6.26378L11.9986 10.0368L19.8209 6.26817L12.3221 2.63255C12.1176 2.53339 11.8789 2.53332 11.6743 2.63236ZM22.7135 5.8953C22.6802 5.83704 22.6417 5.78333 22.5989 5.73446C22.3458 5.4051 22.0162 5.13202 21.6279 4.94383L13.1859 0.850905C13.1859 0.850907 13.1859 0.850903 13.1859 0.850905C12.4362 0.487424 11.5613 0.487191 10.8114 0.850249L2.36445 4.94001C2.36445 4.94001 2.36445 4.94001 2.36445 4.94001C1.96967 5.13115 1.63541 5.41005 1.38051 5.74664C1.34932 5.78397 1.3206 5.82398 1.29471 5.86655C0.996307 6.30833 0.828111 6.83664 0.828125 7.39084L0.828454 16.6239C0.828454 16.6239 0.828454 16.624 0.828454 16.6239C0.828468 17.6695 1.42705 18.6225 2.36863 19.0766L10.8163 23.1499C11.5635 23.5101 12.4343 23.5102 13.1815 23.15L21.6292 19.0766C22.5707 18.6225 23.1693 17.6694 23.1693 16.6239L23.1629 7.39224C23.1629 7.39229 23.1629 7.39218 23.1629 7.39224C23.1626 6.84937 23.0009 6.33129 22.7135 5.8953ZM21.1832 7.80965L12.9885 11.7577L12.9886 21.0448L20.7691 17.2932C20.7691 17.2932 20.7691 17.2932 20.7691 17.2932C21.0258 17.1693 21.1891 16.9095 21.1893 16.6244C21.1893 16.6243 21.1893 16.6241 21.1893 16.6239L21.1832 7.80965ZM11.0086 21.0445L3.22875 17.2932C3.22878 17.2932 3.22873 17.2932 3.22875 17.2932C2.97176 17.1692 2.80845 16.9091 2.80845 16.6239L2.80814 7.80337L11.0085 11.7575L11.0086 21.0445Z" fill="#8098F9"/>
</svg>
