<svg width="28" height="28" viewBox="0 0 28 28" fill="none" xmlns="http://www.w3.org/2000/svg">
<path d="M14.0002 19.8333C14.0002 23.055 16.6118 25.6667 19.8335 25.6667C23.0552 25.6667 25.6668 23.055 25.6668 19.8333C25.6668 16.6117 23.0552 14 19.8335 14C16.6118 14 14.0002 16.6117 14.0002 19.8333ZM14.0002 19.8333C14.0002 18.5199 14.4343 17.3078 15.1668 16.3328V5.83333M14.0002 19.8333C14.0002 20.7962 14.2335 21.7047 14.6466 22.5051C13.6638 23.3354 11.3936 23.9167 8.75016 23.9167C5.20634 23.9167 2.3335 22.872 2.3335 21.5833V5.83333M15.1668 5.83333C15.1668 7.122 12.294 8.16667 8.75016 8.16667C5.20634 8.16667 2.3335 7.122 2.3335 5.83333M15.1668 5.83333C15.1668 4.54467 12.294 3.5 8.75016 3.5C5.20634 3.5 2.3335 4.54467 2.3335 5.83333M2.3335 16.3333C2.3335 17.622 5.20634 18.6667 8.75016 18.6667C11.304 18.6667 13.5094 18.1241 14.5422 17.3387M15.1668 11.0833C15.1668 12.372 12.294 13.4167 8.75016 13.4167C5.20634 13.4167 2.3335 12.372 2.3335 11.0833" stroke="black" stroke-linecap="round" stroke-linejoin="round"/>
</svg>
