<svg width="28" height="28" viewBox="0 0 28 28" fill="none" xmlns="http://www.w3.org/2000/svg">
<path d="M23.9166 8.48942L14 13.9987M14 13.9987L4.0833 8.48942M14 13.9987L14 25.082M24.5 18.7337V9.26373C24.5 8.86398 24.5 8.66411 24.4411 8.48584C24.389 8.32814 24.3038 8.18338 24.1913 8.06124C24.064 7.92318 23.8893 7.82611 23.5399 7.63197L14.9065 2.83568C14.5757 2.65186 14.4102 2.55995 14.235 2.52392C14.08 2.49203 13.92 2.49203 13.765 2.52392C13.5898 2.55995 13.4243 2.65186 13.0935 2.83568L4.46013 7.63198C4.11069 7.82611 3.93597 7.92318 3.80874 8.06124C3.69618 8.18338 3.61101 8.32814 3.5589 8.48585C3.5 8.66411 3.5 8.86399 3.5 9.26374V18.7337C3.5 19.1334 3.5 19.3333 3.5589 19.5116C3.61101 19.6693 3.69618 19.8141 3.80874 19.9362C3.93597 20.0743 4.11069 20.1713 4.46013 20.3655L13.0935 25.1618C13.4243 25.3456 13.5898 25.4375 13.765 25.4735C13.92 25.5054 14.08 25.5054 14.235 25.4735C14.4102 25.4375 14.5757 25.3456 14.9065 25.1618L23.5399 20.3655C23.8893 20.1713 24.064 20.0743 24.1913 19.9362C24.3038 19.8141 24.389 19.6693 24.4411 19.5116C24.5 19.3333 24.5 19.1334 24.5 18.7337Z" stroke="black" stroke-linecap="round" stroke-linejoin="round"/>
</svg>
