  <svg
    width="444"
    height="339"
    viewBox="0 0 444 339"
    fill="currentColor"
    xmlns="http://www.w3.org/2000/svg"
  >
    <path
      d="M375.352 28.0972C347.256 14.9997 316.836 5.49347 285.149 0.000971712C284.871 -0.00791353 284.595 0.0442247 284.339 0.153721C284.084 0.263218 283.855 0.427414 283.67 0.634726C279.867 7.60598 275.431 16.6897 272.474 23.661C238.864 18.591 204.684 18.591 171.074 23.661C168.116 16.4785 163.68 7.60598 159.666 0.634726C159.455 0.212226 158.821 0.000971712 158.187 0.000971712C126.5 5.49347 96.2912 14.9997 67.9837 28.0972C67.7725 28.0972 67.5612 28.3085 67.35 28.5197C9.88997 114.498 -5.95378 198.153 1.86247 280.963C1.86247 281.386 2.07372 281.808 2.49622 282.02C40.5212 309.905 77.0675 326.805 113.191 338.001C113.825 338.212 114.459 338.001 114.67 337.578C123.12 325.96 130.725 313.707 137.274 300.821C137.696 299.976 137.274 299.131 136.429 298.92C124.387 294.272 112.98 288.78 101.784 282.442C100.939 282.02 100.939 280.752 101.572 280.118C103.896 278.428 106.22 276.527 108.544 274.837C108.966 274.415 109.6 274.415 110.022 274.626C182.692 307.792 261.066 307.792 332.891 274.626C333.314 274.415 333.947 274.415 334.37 274.837C336.694 276.738 339.017 278.428 341.341 280.33C342.186 280.963 342.186 282.231 341.13 282.653C330.145 289.202 318.526 294.483 306.485 299.131C305.64 299.342 305.429 300.398 305.64 301.032C312.4 313.918 320.005 326.171 328.244 337.79C328.878 338.001 329.511 338.212 330.145 338.001C366.48 326.805 403.026 309.905 441.051 282.02C441.474 281.808 441.685 281.386 441.685 280.963C450.98 185.267 426.264 102.246 376.197 28.5197C375.986 28.3085 375.775 28.0972 375.352 28.0972ZM148.259 230.475C126.5 230.475 108.332 210.406 108.332 185.69C108.332 160.973 126.077 140.905 148.259 140.905C170.651 140.905 188.396 161.185 188.185 185.69C188.185 210.406 170.44 230.475 148.259 230.475ZM295.5 230.475C273.741 230.475 255.574 210.406 255.574 185.69C255.574 160.973 273.319 140.905 295.5 140.905C317.892 140.905 335.637 161.185 335.426 185.69C335.426 210.406 317.892 230.475 295.5 230.475Z"
      fill="black"
    />
  </svg>