<svg width="28" height="28" viewBox="0 0 28 28" fill="none" xmlns="http://www.w3.org/2000/svg">
<path d="M2.82348 14.8307C2.66459 14.5792 2.58515 14.4534 2.54068 14.2593C2.50727 14.1136 2.50727 13.8838 2.54068 13.738C2.58515 13.544 2.66459 13.4182 2.82348 13.1667C4.13645 11.0877 8.04463 5.83203 14.0005 5.83203C19.9563 5.83203 23.8645 11.0877 25.1775 13.1667C25.3364 13.4182 25.4158 13.544 25.4603 13.738C25.4937 13.8838 25.4937 14.1136 25.4603 14.2593C25.4158 14.4534 25.3364 14.5792 25.1775 14.8307C23.8645 16.9097 19.9563 22.1654 14.0005 22.1654C8.04463 22.1654 4.13645 16.9097 2.82348 14.8307Z" stroke="black" stroke-linecap="round" stroke-linejoin="round"/>
<path d="M14.0005 17.4987C15.9335 17.4987 17.5005 15.9317 17.5005 13.9987C17.5005 12.0657 15.9335 10.4987 14.0005 10.4987C12.0675 10.4987 10.5005 12.0657 10.5005 13.9987C10.5005 15.9317 12.0675 17.4987 14.0005 17.4987Z" stroke="black" stroke-linecap="round" stroke-linejoin="round"/>
</svg>
