<svg width="28" height="28" viewBox="0 0 28 28" fill="none" xmlns="http://www.w3.org/2000/svg">
<path d="M14.0002 2.33203C17.5002 4.66536 18.5767 9.67274 18.6668 13.9987C18.5767 18.3247 17.5002 23.332 14.0002 25.6654M14.0002 2.33203C10.5002 4.66537 9.42362 9.67274 9.3335 13.9987C9.42362 18.3247 10.5002 23.332 14.0002 25.6654M14.0002 2.33203C7.55684 2.33203 2.3335 7.55538 2.3335 13.9987M14.0002 2.33203C20.4435 2.33203 25.6668 7.55538 25.6668 13.9987M14.0002 25.6654C20.4435 25.6654 25.6668 20.442 25.6668 13.9987M14.0002 25.6654C7.55684 25.6654 2.3335 20.442 2.3335 13.9987M25.6668 13.9987C23.3335 17.4987 18.3261 18.5752 14.0002 18.6654C9.6742 18.5752 4.66683 17.4987 2.3335 13.9987M25.6668 13.9987C23.3335 10.4987 18.3261 9.42215 14.0002 9.33203C9.6742 9.42215 4.66683 10.4987 2.3335 13.9987" stroke="black" stroke-linecap="round" stroke-linejoin="round"/>
</svg>
