<svg width="21" height="20" viewBox="0 0 21 20" fill="none" xmlns="http://www.w3.org/2000/svg">
  <path d="M7.41667 12.2235C7.41667 13.2974 8.28722 14.168 9.36111 14.168H11.1667C12.3173 14.168 13.25 13.2352 13.25 12.0846C13.25 10.934 12.3173 10.0013 11.1667 10.0013H9.5C8.34941 10.0013 7.41667 9.06856 7.41667 7.91797C7.41667 6.76738 8.34941 5.83464 9.5 5.83464H11.3056C12.3794 5.83464 13.25 6.70519 13.25 7.77908M10.3333 4.58464V5.83464M10.3333 14.168V15.418M18.6667 10.0013C18.6667 14.6037 14.9357 18.3346 10.3333 18.3346C5.73096 18.3346 2 14.6037 2 10.0013C2 5.39893 5.73096 1.66797 10.3333 1.66797C14.9357 1.66797 18.6667 5.39893 18.6667 10.0013Z" stroke="#697586" stroke-width="1.5" stroke-linecap="round" stroke-linejoin="round"/>
</svg>