<svg width="24" height="24" viewBox="0 0 24 24" fill="none" xmlns="http://www.w3.org/2000/svg">
<path d="M15.4996 8.00004C14.6481 7.99712 13.8043 8.16213 13.0166 8.48562C12.2289 8.80912 11.5127 9.28476 10.909 9.88533C10.3053 10.4859 9.82593 11.1996 9.49837 11.9856C9.17081 12.7716 9.00146 13.6145 9 14.466V20.9986C9 21.2638 9.10535 21.5181 9.29288 21.7056C9.4804 21.8931 9.73474 21.9985 9.99994 21.9985H12.3331C12.5983 21.9985 12.8527 21.8931 13.0402 21.7056C13.2277 21.5181 13.3331 21.2638 13.3331 20.9986V14.466C13.3329 14.1631 13.3965 13.8636 13.5198 13.587C13.6431 13.3104 13.8233 13.0628 14.0487 12.8605C14.274 12.6582 14.5395 12.5057 14.8278 12.4129C15.1161 12.32 15.4207 12.289 15.7218 12.3218C16.2618 12.3898 16.758 12.6536 17.1164 13.0631C17.4748 13.4727 17.6704 13.9995 17.6662 14.5437V20.9986C17.6662 21.2638 17.7715 21.5181 17.959 21.7056C18.1466 21.8931 18.4009 21.9985 18.6661 21.9985H20.9993C21.2645 21.9985 21.5188 21.8931 21.7064 21.7056C21.8939 21.5181 21.9992 21.2638 21.9992 20.9986V14.466C21.9978 13.6145 21.8284 12.7716 21.5009 11.9856C21.1733 11.1996 20.694 10.4859 20.0903 9.88533C19.4866 9.28476 18.7704 8.80912 17.9827 8.48562C17.195 8.16213 16.3512 7.99712 15.4996 8.00004Z" fill="black"/>
<path d="M6.00025 9H3.00043C2.44818 9 2.00049 9.44766 2.00049 9.99989V20.9986C2.00049 21.5509 2.44818 21.9985 3.00043 21.9985H6.00025C6.55251 21.9985 7.0002 21.5509 7.0002 20.9986V9.99989C7.0002 9.44766 6.55251 9 6.00025 9Z" fill="black"/>
<path d="M4.50034 6.99944C5.88097 6.99944 7.0002 5.88027 7.0002 4.49972C7.0002 3.11916 5.88097 2 4.50034 2C3.11971 2 2.00049 3.11916 2.00049 4.49972C2.00049 5.88027 3.11971 6.99944 4.50034 6.99944Z" fill="black"/>
</svg>
