<svg width="16" height="16" viewBox="0 0 16 16" fill="none" xmlns="http://www.w3.org/2000/svg">
  <g clip-path="url(#clip0_2139_16649)">
    <path d="M5.66659 9.77648C5.66659 10.6356 6.36303 11.332 7.22214 11.332H8.66659C9.58706 11.332 10.3333 10.5858 10.3333 9.66536C10.3333 8.74489 9.58706 7.9987 8.66659 7.9987H7.33325C6.41278 7.9987 5.66659 7.25251 5.66659 6.33203C5.66659 5.41156 6.41278 4.66536 7.33325 4.66536H8.7777C9.63681 4.66536 10.3333 5.36181 10.3333 6.22092M7.99992 3.66536V4.66536M7.99992 11.332V12.332M14.6666 7.9987C14.6666 11.6806 11.6818 14.6654 7.99992 14.6654C4.31802 14.6654 1.33325 11.6806 1.33325 7.9987C1.33325 4.3168 4.31802 1.33203 7.99992 1.33203C11.6818 1.33203 14.6666 4.3168 14.6666 7.9987Z" stroke="black" stroke-linecap="round" stroke-linejoin="round"/>
  </g>
  <defs>
    <clipPath id="clip0_2139_16649">
      <rect width="16" height="16" fill="white"/>
    </clipPath>
  </defs>
</svg>