<svg width="25" height="24" viewBox="0 0 25 24" fill="none" xmlns="http://www.w3.org/2000/svg">
  <path d="M23.4324 5.43452L20.2325 2.23462C20.1582 2.16024 20.0699 2.10124 19.9728 2.06098C19.8757 2.02072 19.7716 2 19.6665 2C19.5614 2 19.4573 2.02072 19.3601 2.06098C19.263 2.10124 19.1748 2.16024 19.1005 2.23462L9.50081 11.8343C9.42654 11.9087 9.36765 11.9969 9.32751 12.094C9.28736 12.1911 9.26673 12.2952 9.26682 12.4003V15.6002C9.26682 15.8124 9.3511 16.0158 9.50112 16.1659C9.65115 16.3159 9.85462 16.4002 10.0668 16.4002H13.2667C13.3718 16.4003 13.4758 16.3796 13.573 16.3395C13.6701 16.2993 13.7583 16.2404 13.8327 16.1662L23.4324 6.56649C23.5068 6.49219 23.5658 6.40396 23.606 6.30685C23.6463 6.20973 23.667 6.10563 23.667 6.0005C23.667 5.89537 23.6463 5.79128 23.606 5.69416C23.5658 5.59705 23.5068 5.50882 23.4324 5.43452ZM12.9357 14.8002H10.8668V12.7313L17.2666 6.33149L19.3355 8.40043L12.9357 14.8002ZM20.4665 7.26946L18.3975 5.20053L19.6665 3.93157L21.7354 6.0005L20.4665 7.26946ZM22.8664 11.6003V20.4001C22.8664 20.8244 22.6978 21.2313 22.3978 21.5314C22.0977 21.8314 21.6908 22 21.2664 22H5.26694C4.84261 22 4.43566 21.8314 4.13561 21.5314C3.83556 21.2313 3.66699 20.8244 3.66699 20.4001V4.40055C3.66699 3.97622 3.83556 3.56927 4.13561 3.26922C4.43566 2.96917 4.84261 2.8006 5.26694 2.8006H14.0667C14.2788 2.8006 14.4823 2.88489 14.6323 3.03491C14.7824 3.18494 14.8666 3.38841 14.8666 3.60058C14.8666 3.81275 14.7824 4.01622 14.6323 4.16625C14.4823 4.31627 14.2788 4.40055 14.0667 4.40055H5.26694V20.4001H21.2664V11.6003C21.2664 11.3882 21.3507 11.1847 21.5007 11.0347C21.6508 10.8846 21.8542 10.8004 22.0664 10.8004C22.2786 10.8004 22.4821 10.8846 22.6321 11.0347C22.7821 11.1847 22.8664 11.3882 22.8664 11.6003Z" fill="#15B79E"/>
</svg>