<svg width="20" height="20" viewBox="0 0 20 20" fill="none" xmlns="http://www.w3.org/2000/svg">
  <path d="M9.99999 9.99935L6.43926 7.03207C5.91021 6.5912 5.64569 6.37076 5.45553 6.10055C5.28703 5.86112 5.1619 5.59397 5.08584 5.31125C4.99999 4.99217 4.99999 4.64784 4.99999 3.95918V1.66602M9.99999 9.99935L13.5607 7.03207C14.0898 6.5912 14.3543 6.37076 14.5445 6.10055C14.713 5.86112 14.8381 5.59397 14.9141 5.31125C15 4.99217 15 4.64784 15 3.95918V1.66602M9.99999 9.99935L6.43926 12.9666C5.91021 13.4075 5.64569 13.6279 5.45553 13.8982C5.28703 14.1376 5.1619 14.4047 5.08584 14.6874C4.99999 15.0065 4.99999 15.3509 4.99999 16.0395V18.3327M9.99999 9.99935L13.5607 12.9666C14.0898 13.4075 14.3543 13.6279 14.5445 13.8982C14.713 14.1376 14.8381 14.4047 14.9141 14.6874C15 15.0065 15 15.3509 15 16.0395V18.3327M3.33333 1.66602H16.6667M3.33333 18.3327H16.6667" stroke="#155EEF" stroke-width="1.66667" stroke-linecap="round" stroke-linejoin="round"/>
</svg>