<svg width="32" height="32" viewBox="0 0 32 32" fill="none" xmlns="http://www.w3.org/2000/svg">
<g id="Plant">
<path id="Vector" d="M30.9487 4.98535C30.9345 4.74071 30.8308 4.50983 30.6575 4.33654C30.4843 4.16326 30.2534 4.05964 30.0087 4.04535C23.5387 3.67035 18.3437 5.63785 16.1112 9.32285C14.6362 11.7591 14.6387 14.7178 16.0912 17.5403C15.2645 18.5245 14.6603 19.6758 14.32 20.9153L12.2862 18.8741C13.2637 16.8328 13.2262 14.7053 12.1612 12.9378C10.5112 10.2141 6.70249 8.7541 1.97374 9.0316C1.7291 9.04589 1.49822 9.14951 1.32493 9.32279C1.15165 9.49608 1.04803 9.72696 1.03374 9.9716C0.754992 14.7003 2.21624 18.5091 4.93999 20.1591C5.83882 20.7083 6.87168 20.9989 7.92499 20.9991C8.94736 20.9865 9.95383 20.7443 10.87 20.2903L13.995 23.4153V26.9991C13.995 27.2643 14.1003 27.5187 14.2879 27.7062C14.4754 27.8937 14.7298 27.9991 14.995 27.9991C15.2602 27.9991 15.5146 27.8937 15.7021 27.7062C15.8896 27.5187 15.995 27.2643 15.995 26.9991V23.3128C15.9905 21.722 16.5319 20.1777 17.5287 18.9378C18.8149 19.61 20.2414 19.9697 21.6925 19.9879C23.0955 19.9924 24.4724 19.6091 25.6712 18.8804C29.3562 16.6504 31.3287 11.4553 30.9487 4.98535ZM5.97124 18.4491C4.05374 17.2879 2.96874 14.5391 2.99499 10.9991C6.53499 10.9691 9.28374 12.0578 10.445 13.9753C11.0512 14.9753 11.15 16.1416 10.7525 17.3428L7.70124 14.2916C7.51218 14.112 7.26043 14.0133 6.99967 14.0167C6.73891 14.02 6.48977 14.1251 6.30536 14.3095C6.12096 14.4939 6.01589 14.743 6.01255 15.0038C6.00921 15.2645 6.10787 15.5163 6.28749 15.7053L9.33874 18.7566C8.13749 19.1541 6.97249 19.0554 5.97124 18.4491ZM24.635 17.1716C22.96 18.1854 20.9912 18.2629 18.9912 17.4216L25.7025 10.7091C25.8821 10.52 25.9808 10.2683 25.9774 10.0075C25.9741 9.74676 25.869 9.49762 25.6846 9.31322C25.5002 9.12882 25.2511 9.02375 24.9903 9.02041C24.7296 9.01707 24.4778 9.11573 24.2887 9.29535L17.5762 15.9991C16.7312 13.9991 16.8075 12.0291 17.8262 10.3553C19.5687 7.48035 23.7012 5.87785 28.9925 6.0016C29.1125 11.2916 27.5125 15.4291 24.635 17.1716Z" fill="black"/>
</g>
</svg>
