<svg width="21" height="20" viewBox="0 0 21 20" fill="none" xmlns="http://www.w3.org/2000/svg">
  <path d="M2.35026 10.5956C2.23678 10.4159 2.18003 10.3261 2.14827 10.1875C2.12441 10.0834 2.12441 9.91922 2.14827 9.81512C2.18003 9.67654 2.23678 9.58669 2.35026 9.40699C3.2881 7.922 6.07966 4.16797 10.3338 4.16797C14.588 4.16797 17.3796 7.922 18.3174 9.40699C18.4309 9.58669 18.4876 9.67654 18.5194 9.81512C18.5433 9.91922 18.5433 10.0834 18.5194 10.1875C18.4876 10.3261 18.4309 10.4159 18.3174 10.5956C17.3796 12.0806 14.588 15.8346 10.3338 15.8346C6.07966 15.8346 3.2881 12.0806 2.35026 10.5956Z" stroke="#697586" stroke-width="1.5" stroke-linecap="round" stroke-linejoin="round"/>
  <path d="M10.3338 12.5013C11.7145 12.5013 12.8338 11.382 12.8338 10.0013C12.8338 8.62059 11.7145 7.5013 10.3338 7.5013C8.95312 7.5013 7.83383 8.62059 7.83383 10.0013C7.83383 11.382 8.95312 12.5013 10.3338 12.5013Z" stroke="#697586" stroke-width="1.5" stroke-linecap="round" stroke-linejoin="round"/>
</svg>