<svg width="21" height="20" viewBox="0 0 21 20" fill="none" xmlns="http://www.w3.org/2000/svg">
  <path d="M2.68327 10.5937C2.56978 10.414 2.51304 10.3241 2.48127 10.1855C2.45741 10.0814 2.45741 9.91727 2.48127 9.81317C2.51304 9.67458 2.56978 9.58473 2.68327 9.40503C3.62111 7.92005 6.41267 4.16602 10.6668 4.16602C14.921 4.16602 17.7126 7.92005 18.6504 9.40503C18.7639 9.58473 18.8206 9.67458 18.8524 9.81317C18.8763 9.91727 18.8763 10.0814 18.8524 10.1855C18.8206 10.3241 18.7639 10.414 18.6504 10.5937C17.7126 12.0786 14.921 15.8327 10.6668 15.8327C6.41267 15.8327 3.62111 12.0786 2.68327 10.5937Z" stroke="#697586" stroke-width="1.66667" stroke-linecap="round" stroke-linejoin="round"/>
  <path d="M10.6668 12.4993C12.0476 12.4993 13.1668 11.3801 13.1668 9.99935C13.1668 8.61864 12.0476 7.49935 10.6668 7.49935C9.28613 7.49935 8.16684 8.61864 8.16684 9.99935C8.16684 11.3801 9.28613 12.4993 10.6668 12.4993Z" stroke="#697586" stroke-width="1.66667" stroke-linecap="round" stroke-linejoin="round"/>
</svg>