<svg width="21" height="20" viewBox="0 0 21 20" fill="none" xmlns="http://www.w3.org/2000/svg">
<path d="M18.5718 16.9083L15.4801 13.8416C16.6802 12.3453 17.2614 10.446 17.1042 8.53434C16.9469 6.62267 16.0632 4.84391 14.6347 3.56379C13.2063 2.28368 11.3417 1.59951 9.42425 1.65198C7.50684 1.70445 5.68241 2.48956 4.3261 3.84587C2.96978 5.20219 2.18467 7.02662 2.1322 8.94402C2.07974 10.8614 2.7639 12.7261 4.04402 14.1545C5.32413 15.583 7.1029 16.4667 9.01456 16.6239C10.9262 16.7812 12.8255 16.2 14.3218 14.9999L17.3885 18.0666C17.4659 18.1447 17.5581 18.2067 17.6597 18.249C17.7612 18.2913 17.8701 18.3131 17.9801 18.3131C18.0902 18.3131 18.1991 18.2913 18.3006 18.249C18.4022 18.2067 18.4943 18.1447 18.5718 18.0666C18.722 17.9112 18.806 17.7035 18.806 17.4874C18.806 17.2713 18.722 17.0636 18.5718 16.9083ZM9.64681 14.9999C8.49309 14.9999 7.36527 14.6578 6.40599 14.0168C5.4467 13.3759 4.69903 12.4648 4.25751 11.3989C3.816 10.333 3.70048 9.16012 3.92556 8.02856C4.15064 6.897 4.70622 5.8576 5.52202 5.0418C6.33783 4.22599 7.37723 3.67042 8.50878 3.44534C9.64034 3.22026 10.8132 3.33578 11.8791 3.77729C12.945 4.2188 13.8561 4.96647 14.4971 5.92576C15.138 6.88505 15.4801 8.01286 15.4801 9.16659C15.4801 10.7137 14.8656 12.1974 13.7716 13.2914C12.6776 14.3853 11.1939 14.9999 9.64681 14.9999Z" fill="#8B8B8B"/>
</svg>
