<svg width="12" height="12" viewBox="0 0 12 12" fill="none" xmlns="http://www.w3.org/2000/svg">
<g id="icon/trending">
<path id="Vector" d="M6.00005 11.5C5.24862 11.4999 4.51455 11.2741 3.893 10.8519C3.27145 10.4296 2.7911 9.83032 2.51422 9.13177C2.23734 8.43321 2.17671 7.66759 2.34019 6.93416C2.50367 6.20074 2.88371 5.53334 3.43105 5.0185C4.10205 4.387 5.75005 3.25 5.50005 0.75C8.50005 2.75 10 4.75 7.00005 7.75C7.50005 7.75 8.25005 7.75 9.50005 6.515C9.63505 6.9015 9.75005 7.317 9.75005 7.75C9.75005 8.74456 9.35496 9.69839 8.6517 10.4017C7.94844 11.1049 6.99461 11.5 6.00005 11.5Z" fill="#F79009"/>
</g>
</svg>
