<svg width="24" height="24" viewBox="0 0 24 24" fill="none" xmlns="http://www.w3.org/2000/svg">
<path d="M21.7828 6.60044L19.0145 9.36872C18.4553 15.8515 12.9882 20.89 6.44519 20.89C5.10087 20.89 3.99263 20.677 3.15103 20.2567C2.47239 19.9169 2.19463 19.553 2.12519 19.4493C2.06328 19.3565 2.02315 19.2508 2.0078 19.1403C1.99245 19.0297 2.00228 18.9172 2.03655 18.8109C2.07083 18.7047 2.12867 18.6076 2.20574 18.5269C2.28281 18.4462 2.37713 18.3839 2.48165 18.3448C2.50572 18.3355 4.7259 17.4828 6.13596 15.8598C5.35398 15.2169 4.67134 14.4619 4.11021 13.6193C2.96216 11.9148 1.67708 8.95394 2.07335 4.52932C2.08591 4.38873 2.13838 4.25465 2.22459 4.14288C2.31079 4.03111 2.42714 3.94629 2.55993 3.89843C2.69272 3.85057 2.83643 3.84165 2.97412 3.87272C3.11181 3.90379 3.23776 3.97355 3.33713 4.0738C3.36953 4.10621 6.41835 7.13836 10.1458 8.1216V7.55776C10.1444 6.96651 10.2613 6.38095 10.4896 5.83557C10.7179 5.29018 11.0531 4.796 11.4753 4.38211C11.8854 3.97263 12.3733 3.64943 12.9103 3.43158C13.4473 3.21373 14.0225 3.10565 14.6019 3.1137C15.3792 3.12137 16.1413 3.33003 16.8141 3.71939C17.4869 4.10876 18.0475 4.66559 18.4414 5.33573H21.2587C21.4053 5.33562 21.5486 5.37899 21.6705 5.46037C21.7925 5.54175 21.8875 5.65747 21.9436 5.79289C21.9997 5.9283 22.0144 6.07731 21.9857 6.22107C21.9571 6.36482 21.8865 6.49685 21.7828 6.60044Z" fill="black"/>
</svg>
