<svg width="16" height="14" viewBox="0 0 16 14" fill="none" xmlns="http://www.w3.org/2000/svg">
<path d="M16 2.02866C15.4111 2.29635 14.7763 2.47225 14.1185 2.55639C14.7916 2.15103 15.3117 1.50858 15.5564 0.736117C14.9216 1.11853 14.218 1.38621 13.4761 1.53918C12.8719 0.881433 12.0229 0.499023 11.0593 0.499023C9.26195 0.499023 7.7935 1.96747 7.7935 3.78009C7.7935 4.04013 7.82409 4.29252 7.87763 4.52962C5.15488 4.39195 2.7304 3.08411 1.11663 1.10323C0.833652 1.58507 0.67304 2.15103 0.67304 2.74759C0.67304 3.88717 1.24665 4.89673 2.13384 5.47034C1.59082 5.47034 1.08604 5.31738 0.642448 5.08793V5.11088C0.642448 6.7017 1.77438 8.03249 3.27342 8.33076C2.79214 8.46247 2.28688 8.4808 1.79732 8.3843C2.00505 9.03629 2.41188 9.60679 2.96062 10.0156C3.50937 10.4244 4.17243 10.651 4.8566 10.6635C3.69685 11.5816 2.25927 12.0779 0.780115 12.0707C0.520077 12.0707 0.260038 12.0554 0 12.0248C1.45316 12.9579 3.18164 13.5009 5.03251 13.5009C11.0593 13.5009 14.3709 8.49902 14.3709 4.1625C14.3709 4.01719 14.3709 3.87952 14.3633 3.73421C15.0057 3.27531 15.5564 2.69405 16 2.02866Z" fill="#344054"/>
</svg> 