<svg width="127" height="32" viewBox="0 0 127 32" fill="none" xmlns="http://www.w3.org/2000/svg">
<g clip-path="url(#clip0_10624_168717)">
<path d="M21.5645 15.9945C23.9731 14.038 25.9274 11.8826 27.4044 9.56131C29.3586 6.47738 30.347 3.26079 30.347 0H26.9385C26.9385 2.6418 26.1205 5.27254 24.4958 7.82591C23.1097 10.0035 21.1327 12.1036 18.7468 13.9496C17.8492 13.3637 16.9289 12.8111 15.9859 12.3026C21.0532 8.79862 23.8254 4.44352 23.8254 0H20.4169C20.4169 3.4266 17.8946 7.04111 13.509 9.93713C13.1568 10.1693 12.7819 10.4014 12.4183 10.6225C11.6912 10.324 10.964 10.0477 10.2255 9.80449V0.0110535H6.81701V8.83178C5.68084 8.56649 4.53331 8.36753 3.4085 8.22383V0.0110535H0V8.00276V11.3188C2.64727 11.3188 5.45361 11.7831 8.23722 12.6342C5.44225 13.7174 2.54502 14.3254 0 14.3254V17.6415C2.54502 17.6415 5.43088 18.2604 8.23722 19.3326C5.46497 20.1838 2.65863 20.648 0 20.648V23.9641V31.9889H3.4085V23.7762C4.53331 23.6435 5.68084 23.4335 6.81701 23.1682V31.9889H10.2255V22.1955C10.964 21.9413 11.6912 21.676 12.4183 21.3775C12.7933 21.5986 13.1568 21.8197 13.509 22.0629C17.8946 24.9478 20.4169 28.5734 20.4169 32H23.8254C23.8254 27.5565 21.0418 23.2014 15.9859 19.6974C16.9289 19.1889 17.8492 18.6363 18.7468 18.0504C21.1327 19.8853 23.121 21.9965 24.4958 24.1741C26.1091 26.7275 26.9385 29.3582 26.9385 32H30.347C30.347 28.7392 29.3586 25.5226 27.4044 22.4387C25.9387 20.1064 23.9731 17.9509 21.5645 15.9945ZM8.74849 15.9945C10.0664 15.5302 11.3617 14.9665 12.6115 14.3254C13.6795 14.8228 14.7247 15.3865 15.7473 15.9945C14.7361 16.6024 13.6908 17.1661 12.6115 17.6636C11.3617 17.0225 10.0551 16.4698 8.74849 15.9945Z" fill="#3B82F6"/>
</g>
<g clip-path="url(#clip1_10624_168717)">
<path d="M50.0728 25.4783L45.5622 20.6148H44.7669V25.4783H40.3472V6.11255H44.7669V16.5803H45.3804L49.7774 11.982H55.1174L49.0389 18.4151L55.7536 25.4894H50.0728V25.4783Z" fill="white"/>
<path d="M70.6715 25.4784H66.2518V24.4062C65.127 25.3899 63.6841 25.8873 61.9344 25.8873C60.0597 25.8873 58.4577 25.2241 57.1398 23.8866C55.8218 22.5492 55.1628 20.8359 55.1628 18.7357C55.1628 16.6355 55.8218 14.9443 57.1398 13.5958C58.4577 12.2473 60.0597 11.573 61.9344 11.573C63.6841 11.573 65.127 12.0704 66.2518 13.0542V11.982H70.6715V25.4784ZM65.2407 21.2448C65.911 20.5927 66.2518 19.7526 66.2518 18.7246C66.2518 17.6967 65.911 16.8898 65.2407 16.2265C64.5703 15.5633 63.775 15.2317 62.8433 15.2317C61.9117 15.2317 61.0596 15.5633 60.4347 16.2155C59.8098 16.8676 59.4916 17.7077 59.4916 18.7357C59.4916 19.7637 59.8098 20.6148 60.4347 21.267C61.0596 21.9081 61.8662 22.2397 62.8433 22.2397C63.7636 22.2176 64.5703 21.897 65.2407 21.2448Z" fill="white"/>
<path d="M83.1466 11.8935L82.9535 16.1933H82.1468C78.9542 16.1933 77.3635 17.8845 77.3635 21.2558V25.4783H72.9438V11.9709H77.3635V14.5574C78.5111 12.7115 80.1017 11.783 82.1468 11.783C82.5217 11.783 82.8512 11.8161 83.1466 11.8935Z" fill="white"/>
<path d="M107.177 13.0873C108.188 14.1043 108.699 15.4196 108.699 17.0334V25.4784H104.302V17.9509C104.302 17.1993 104.086 16.5913 103.643 16.1381C103.2 15.6849 102.643 15.4528 101.984 15.4528C101.155 15.4528 100.496 15.7402 100.007 16.326C99.5188 16.9119 99.2802 17.7519 99.2802 18.8683V25.4894H94.8605V17.9509C94.8605 17.1993 94.6446 16.5913 94.2015 16.1381C93.7584 15.6849 93.2017 15.4528 92.52 15.4528C91.6906 15.4528 91.043 15.7402 90.5658 16.326C90.0999 16.9119 89.8613 17.7519 89.8613 18.8683V25.4894H85.4417V11.9709H89.8613V13.2089C90.8725 12.1146 92.2359 11.573 93.9516 11.573C95.9967 11.573 97.5078 12.3357 98.4849 13.8611C99.6778 12.3357 101.325 11.573 103.404 11.573C104.904 11.573 106.165 12.0815 107.177 13.0873Z" fill="white"/>
<path d="M126.48 25.4784H122.06V24.4062C120.936 25.3899 119.493 25.8873 117.743 25.8873C115.868 25.8873 114.266 25.2241 112.948 23.8866C111.63 22.5492 110.971 20.8359 110.971 18.7357C110.971 16.6355 111.63 14.9443 112.948 13.5958C114.266 12.2473 115.868 11.573 117.743 11.573C119.493 11.573 120.936 12.0704 122.06 13.0542V11.982H126.48V25.4784ZM121.049 21.2448C121.72 20.5927 122.06 19.7526 122.06 18.7246C122.06 17.6967 121.72 16.8898 121.049 16.2265C120.379 15.5633 119.584 15.2317 118.652 15.2317C117.72 15.2317 116.868 15.5633 116.243 16.2155C115.618 16.8676 115.3 17.7077 115.3 18.7357C115.3 19.7637 115.618 20.6148 116.243 21.267C116.868 21.9081 117.675 22.2397 118.652 22.2397C119.584 22.2176 120.379 21.897 121.049 21.2448Z" fill="white"/>
</g>
<defs>
<clipPath id="clip0_10624_168717">
<rect width="30.347" height="32" fill="white"/>
</clipPath>
<clipPath id="clip1_10624_168717">
<rect width="86.1327" height="32" fill="white" transform="translate(40.3472)"/>
</clipPath>
</defs>
</svg>
