<?xml version="1.0" encoding="UTF-8"?>
<svg id="Layer_1" data-name="Layer 1" xmlns="http://www.w3.org/2000/svg" viewBox="0 0 750 750.19">
  <defs>
    <style>
      .cls-1 {
        fill: #fff;
        stroke-width: 0px;
      }
    </style>
  </defs>
  <path class="cls-1" d="m356.36.7C237.42,6.33,128.53,68.24,62.12,167.97,28.57,218.47,8.24,275.2,1.41,337.57c-1.88,17.48-1.88,58.31,0,75.79,9.38,86,45.25,162.77,104.46,223.55,23.56,24.16,49.08,44.28,78.04,61.61,15.31,9.16,48.48,24.99,58.76,28.14l1.65.45.08-134.55c0-126.82.08-134.48,1.28-132.68,22.14,32.49,53.51,55.08,89.53,64.54,64.54,16.88,131.25-8.48,168.32-64.01,16.66-24.99,25.21-53.81,25.21-84.95,0-14.11-1.35-25.06-4.58-37.82-1.2-4.8-2.18-8.78-2.18-8.93,0-.53,93.05-.08,93.35.45.23.38,1.13,5.48,2.1,11.48,1.43,9.46,1.65,13.66,1.73,34.44,0,19.06-.3,25.36-1.35,32.64-8.25,54.86-30.54,100.41-67.61,138.38-39.85,40.75-87.95,64.69-145.66,72.57-16.36,2.25-56.28,1.65-65.06-.9-1.28-.38-1.35,3.08-1.35,65.21v65.66l2.48.45c1.28.3,13.58.68,27.17.9,19.51.38,27.69.23,38.65-.75,47.65-4.13,89.98-15.76,131.7-36.02,18.09-8.78,27.32-14.11,44.65-25.66,42.55-28.29,77.22-63.04,105.44-105.74,57.63-87.05,76.09-195.86,50.58-297.62-26.57-105.96-97.33-194.36-195.11-243.81-11.86-6-35.72-16.51-37.52-16.51-.38,0-.68,52.15-.68,133.73v133.8l-1.58-2.55c-6.15-10.06-21.84-27.32-32.57-35.72-23.34-18.31-49.08-29.04-77.67-32.64-9.16-1.13-30.54-.9-39.7.38-26.49,3.75-50.13,13.58-71.89,29.79-22.14,16.51-40,40.07-50.5,66.56-11.48,28.97-13.66,63.41-5.93,93.88,1.2,4.73,2.18,8.7,2.18,8.86,0,.08-21.01.08-46.68,0l-46.75-.23-.9-5.25c-4.95-29.42-4.05-64.84,2.48-93.95,4.5-20.26,9.83-35.27,19.81-55.38,37.07-75.27,108.59-125.4,192.48-135.08,13.58-1.58,40.15-1.58,52.91-.08,5.18.68,9.61,1.2,9.98,1.2.3,0,.53-29.04.53-64.46V2.27l-2.03-.45c-2.4-.53-33.54-2.03-38.12-1.8-1.65,0-8.48.38-15.16.68Z"/>
</svg>