<svg width="53" height="52" viewBox="0 0 53 52" fill="none" xmlns="http://www.w3.org/2000/svg">
<path d="M21.0618 24.1298L21.068 24.1288C21.1069 24.124 21.1456 24.1173 21.1838 24.1086C21.2015 24.1051 21.2191 24.1034 21.2362 24.0995C21.2721 24.09 21.3072 24.0757 21.3424 24.063C21.3598 24.0567 21.3784 24.0519 21.3956 24.0445C21.4129 24.0371 21.4517 24.0149 21.4789 24.0014C21.5062 23.988 21.5227 23.9802 21.5436 23.9667C21.5644 23.9533 21.5844 23.9366 21.6049 23.9221C21.6254 23.9075 21.6557 23.8859 21.6787 23.8656C21.6787 23.8656 21.6811 23.8615 21.6827 23.8588C21.7 23.8434 21.7139 23.826 21.7304 23.8091C21.7468 23.7922 21.7741 23.7662 21.7934 23.7428C21.8126 23.7195 21.8261 23.6982 21.8401 23.6791C21.8542 23.66 21.8733 23.6338 21.8876 23.6095C21.9019 23.5852 21.9159 23.5615 21.9254 23.5344C21.9349 23.5073 21.9533 23.487 21.9584 23.4629C21.9634 23.4387 21.9765 23.4055 21.9854 23.3763C21.9944 23.3471 22.0006 23.3335 22.0055 23.311C22.0055 23.311 22.0079 23.307 22.0095 23.3042C22.0152 23.2741 22.0193 23.2436 22.0219 23.213C22.032 23.164 22.0346 23.1138 22.0295 23.064C22.0289 23.0339 22.0305 23.0032 22.0273 22.9726C22.0242 22.9419 22.0197 22.934 22.0166 22.9142C22.0135 22.8945 22.0051 22.8446 21.995 22.8119C21.9904 22.7948 21.9821 22.7775 21.9764 22.7607C21.9653 22.7246 21.9522 22.6891 21.9368 22.6545L21.9351 22.6481L13.4133 4.42751L25.2486 20.7694L25.2548 20.7729C25.276 20.8003 25.2986 20.8266 25.3225 20.8518C25.3369 20.868 25.3494 20.8859 25.3645 20.9008C25.3869 20.9215 25.4104 20.9411 25.4348 20.9594C25.4538 20.9756 25.4723 20.9942 25.4925 21.0083C25.5128 21.0224 25.5361 21.033 25.5581 21.0454C25.5802 21.0579 25.6119 21.0759 25.6389 21.0911C25.6658 21.1064 25.6789 21.1074 25.6988 21.116C25.7292 21.1332 25.7631 21.1442 25.7971 21.1553L25.8033 21.1588C25.8237 21.165 25.8442 21.1675 25.8643 21.1726C25.8963 21.1816 25.9289 21.1888 25.9618 21.1944C25.9882 21.1981 26.0147 21.2005 26.0414 21.2015C26.0712 21.204 26.1003 21.2078 26.1299 21.2075C26.1596 21.2071 26.1856 21.2037 26.2135 21.2015C26.2415 21.1993 26.2705 21.1986 26.2986 21.1946C26.3267 21.1907 26.358 21.1813 26.3869 21.1743C26.416 21.1672 26.4335 21.1654 26.4568 21.1588L26.4646 21.155C26.493 21.1459 26.5194 21.1338 26.5473 21.1225C26.5751 21.1112 26.5981 21.1034 26.6221 21.0908C26.6461 21.0783 26.6592 21.0685 26.6773 21.0581C26.7069 21.0405 26.738 21.0238 26.7663 21.0038C26.7779 20.9951 26.7886 20.9848 26.7995 20.9757C26.8321 20.9499 26.8656 20.9229 26.8944 20.8959C26.9011 20.8844 26.9124 20.8746 26.9213 20.8642C26.951 20.8339 26.9787 20.8016 27.004 20.7676C27.004 20.7676 27.004 20.7677 27.0068 20.7629L38.8449 4.4248L30.3236 22.6316C30.3 22.6818 30.2804 22.7338 30.2651 22.787C30.2628 22.7911 30.2599 22.7958 30.2571 22.8006C30.2439 22.8484 30.2343 22.8972 30.2282 22.9465C30.2242 22.9532 30.2262 22.9624 30.2256 22.9712C30.2204 23.0199 30.2186 23.0688 30.2202 23.1178L30.222 23.135C30.2243 23.1824 30.2304 23.2296 30.2401 23.2761C30.2406 23.2807 30.2413 23.2853 30.2422 23.2898L30.244 23.3008C30.249 23.3234 30.2584 23.345 30.2646 23.3674C30.2707 23.3898 30.2803 23.425 30.2908 23.4525C30.3012 23.4801 30.3152 23.5033 30.3272 23.5282C30.3393 23.553 30.3502 23.5781 30.3637 23.602C30.3773 23.6259 30.3975 23.6509 30.4132 23.6742C30.429 23.6975 30.442 23.7175 30.4587 23.7377C30.4753 23.758 30.5035 23.7865 30.5268 23.8096C30.55 23.8327 30.5538 23.8403 30.57 23.8548L30.5763 23.8584C30.6023 23.8812 30.6311 23.9011 30.6595 23.9217C30.6782 23.9322 30.6932 23.9488 30.7114 23.9601C30.7297 23.9713 30.7653 23.9905 30.7922 24.0058C30.8191 24.021 30.8364 24.0307 30.8578 24.0429C30.8792 24.0549 30.9061 24.0593 30.9299 24.0674C30.9583 24.079 30.9873 24.0891 31.017 24.0977C31.0377 24.1031 31.0604 24.1051 31.082 24.1092C31.1158 24.1158 31.15 24.1233 31.1848 24.1268L31.191 24.1303L51.5555 26.0002L31.1941 27.8732L31.1869 27.8745C31.1744 27.8755 31.1624 27.8786 31.1494 27.8803C31.1113 27.8858 31.0733 27.8923 31.036 27.901L30.9866 27.9145C30.9527 27.924 30.9194 27.9352 30.8867 27.9482C30.8725 27.9536 30.8571 27.9594 30.8431 27.9659C30.7967 27.9864 30.752 28.0102 30.7091 28.0371C30.7091 28.0371 30.7064 28.0418 30.7047 28.0445C30.6638 28.0708 30.625 28.1001 30.5887 28.1321C30.5834 28.1356 30.5784 28.1393 30.5737 28.1435C30.5697 28.1503 30.5619 28.1558 30.5554 28.1621C30.5285 28.1874 30.5037 28.2139 30.4787 28.2422C30.4715 28.2543 30.4595 28.2638 30.4503 28.2748C30.4199 28.3129 30.392 28.3529 30.3669 28.3945C30.3427 28.4365 30.3213 28.4802 30.3028 28.525C30.2956 28.5372 30.2933 28.5521 30.2882 28.5654C30.2761 28.6 30.2647 28.6351 30.2557 28.6706L30.2484 28.6953C30.2473 28.7015 30.2464 28.7076 30.2459 28.7137C30.2359 28.7609 30.2293 28.8086 30.2261 28.8567C30.225 28.8591 30.2237 28.8614 30.2221 28.8635C30.2197 28.9133 30.221 28.9632 30.2261 29.0128C30.2274 29.0279 30.2297 29.0427 30.232 29.0575C30.2373 29.092 30.2445 29.1262 30.2536 29.1599C30.2566 29.176 30.2608 29.1919 30.266 29.2075C30.2757 29.2452 30.288 29.2823 30.3027 29.3185C30.3071 29.3299 30.3103 29.3417 30.3157 29.3528L30.3181 29.3596L38.8427 47.5755L27.0073 31.2336L27.0011 31.2301C26.9807 31.2023 26.9569 31.1771 26.9342 31.1516C26.9198 31.1354 26.9066 31.1171 26.8915 31.1022C26.8763 31.0874 26.845 31.0624 26.8215 31.0428C26.7981 31.0233 26.7836 31.0088 26.7634 30.9946C26.7432 30.9805 26.7192 30.9697 26.6979 30.9575C26.6717 30.941 26.6448 30.9257 26.6171 30.9119C26.5984 30.9013 26.577 30.8955 26.5572 30.887C26.5268 30.8698 26.4928 30.8588 26.4596 30.8481L26.4534 30.8445C26.433 30.8385 26.4125 30.8358 26.3917 30.8304C26.3597 30.8212 26.3271 30.8139 26.2941 30.8086C26.2679 30.8046 26.242 30.8034 26.2146 30.8014C26.1852 30.7979 26.1556 30.796 26.126 30.7955C26.0974 30.7956 26.0697 30.7989 26.0417 30.8011C26.0138 30.8033 25.9848 30.804 25.9567 30.808C25.9286 30.8119 25.898 30.8217 25.8683 30.8283C25.8386 30.835 25.8217 30.8371 25.7991 30.8442L25.7885 30.8481L25.7758 30.8526C25.7298 30.8683 25.685 30.887 25.6416 30.9084L25.6262 30.9159C25.5817 30.9386 25.5391 30.9645 25.4985 30.9934C25.4946 31.0002 25.4848 31.0027 25.478 31.0079C25.4375 31.0377 25.3992 31.0703 25.3635 31.1055C25.3611 31.1095 25.3583 31.1143 25.3555 31.119C25.3161 31.157 25.2796 31.1979 25.2466 31.2413L13.4113 47.5747L21.9366 29.3611C21.9366 29.3611 21.9386 29.3577 21.9394 29.3564C21.9559 29.3206 21.9682 29.2825 21.9808 29.2455C21.9888 29.232 21.9934 29.2147 21.9972 29.1988C22.0064 29.1627 22.0136 29.1262 22.0186 29.0892C22.0218 29.0712 22.0265 29.054 22.0286 29.0363C22.0323 29.005 22.0311 28.9727 22.0323 28.941C22.0336 28.9092 22.0352 28.8939 22.0341 28.8708C22.0331 28.8476 22.0276 28.8193 22.0235 28.7936C22.0193 28.7678 22.0179 28.7344 22.0121 28.7051C22.0121 28.7051 22.0142 28.7016 22.0105 28.6969C22.0054 28.6742 21.9961 28.6526 21.9899 28.6303C21.9838 28.6079 21.9742 28.5726 21.9637 28.5451C21.9533 28.5176 21.9393 28.4944 21.9277 28.4688C21.916 28.4433 21.9047 28.4189 21.8907 28.3957C21.8768 28.3724 21.8581 28.3465 21.8416 28.3228C21.8252 28.2991 21.8122 28.279 21.7956 28.2588C21.779 28.2387 21.7503 28.2107 21.727 28.1877C21.7039 28.1646 21.7 28.157 21.6838 28.1424L21.6775 28.1389C21.6511 28.1163 21.6233 28.0951 21.5943 28.0756C21.5756 28.065 21.5606 28.0484 21.5424 28.0372C21.5163 28.0206 21.4893 28.0054 21.4616 27.9915C21.4402 27.9794 21.4181 27.9669 21.396 27.9544C21.3739 27.9419 21.3488 27.9377 21.3244 27.9292C21.2999 27.9208 21.2664 27.9072 21.2369 27.8996C21.2074 27.8919 21.1934 27.8922 21.1723 27.8874C21.1511 27.8827 21.1042 27.8732 21.0694 27.8698L21.0632 27.8663L0.700012 25.9972L21.0618 24.1298Z" fill="#FFEEA8" stroke="#254D32" stroke-miterlimit="10" stroke-linejoin="round"/>
<path d="M24.2279 30.9817L24.2269 30.9757C24.222 30.9374 24.2152 30.8994 24.2065 30.8617C24.2025 30.845 24.2011 30.827 24.1971 30.8103C24.1867 30.7749 24.1743 30.7401 24.1601 30.7059C24.1537 30.6887 24.1488 30.6705 24.1413 30.6536C24.1338 30.6366 24.1119 30.5988 24.0976 30.5716C24.0833 30.5444 24.0761 30.5286 24.0631 30.5085C24.0501 30.4884 24.0319 30.468 24.0171 30.4479C24.0023 30.4277 23.9803 30.3979 23.9597 30.3753L23.9529 30.3714C23.9372 30.3543 23.9196 30.3406 23.9024 30.3245C23.8853 30.3084 23.8588 30.2816 23.8352 30.2625C23.8115 30.2436 23.7899 30.2304 23.767 30.2147C23.7442 30.1989 23.7211 30.1821 23.6964 30.168C23.6717 30.1538 23.6476 30.1402 23.6202 30.1308C23.5926 30.1215 23.5721 30.1034 23.5441 30.0964C23.5161 30.0895 23.4859 30.0786 23.4562 30.0698C23.4266 30.061 23.4128 30.0549 23.39 30.0501L23.3831 30.0462C23.3524 30.0405 23.3215 30.0365 23.2904 30.034C23.2407 30.024 23.1898 30.0215 23.1393 30.0264C23.1087 30.0271 23.0775 30.0256 23.0465 30.0287C23.0154 30.0317 23.0073 30.0362 22.9873 30.0392C22.9672 30.0422 22.9166 30.0505 22.8833 30.0604C22.866 30.065 22.8484 30.0731 22.8314 30.0787C22.7947 30.0895 22.7587 30.1025 22.7236 30.1176L22.7171 30.1193L4.23243 38.502L20.8198 26.8675L20.8234 26.8613C20.8516 26.8413 20.8771 26.8179 20.903 26.7955C20.9195 26.7814 20.938 26.7684 20.9531 26.7535C20.9683 26.7386 20.9935 26.7079 21.0134 26.6848C21.0333 26.6618 21.0479 26.6476 21.0623 26.6277C21.0766 26.6078 21.0873 26.5849 21.102 26.5599C21.1187 26.5342 21.1342 26.5077 21.1483 26.4804C21.159 26.4621 21.1649 26.4411 21.1735 26.4215C21.1876 26.3897 21.2022 26.3583 21.2131 26.3256C21.2148 26.3236 21.2161 26.3213 21.2171 26.3188C21.2233 26.2988 21.2259 26.2786 21.231 26.2589C21.2393 26.2275 21.248 26.1953 21.2532 26.163C21.2583 26.1307 21.2588 26.111 21.2611 26.0852C21.2634 26.0593 21.2668 26.0268 21.2664 25.9977C21.266 25.9685 21.2626 25.9431 21.2604 25.9156C21.2582 25.888 21.2574 25.8596 21.2534 25.8319C21.2494 25.8043 21.2399 25.7736 21.2327 25.745C21.2256 25.7165 21.2238 25.6992 21.2166 25.677L21.2132 25.6688C21.2039 25.6408 21.1916 25.6148 21.1798 25.5881C21.1705 25.5628 21.1599 25.5381 21.148 25.5139C21.1382 25.4947 21.1254 25.4775 21.1147 25.4596C21.097 25.4305 21.08 25.4 21.0597 25.3721C21.0508 25.3607 21.0405 25.3503 21.0312 25.3395C21.0059 25.3071 20.9787 25.2763 20.9498 25.2469C20.9381 25.2402 20.9281 25.2291 20.918 25.2198C20.8873 25.1905 20.8545 25.1634 20.82 25.1385L20.8152 25.1358L4.23169 13.4985L22.712 21.8752C22.763 21.8984 22.8157 21.9176 22.8697 21.9327L22.8834 21.9405C22.9321 21.9535 22.9815 21.963 23.0316 21.969L23.0566 21.9715C23.106 21.9769 23.1557 21.9787 23.2055 21.9768L23.2229 21.9751C23.271 21.9728 23.3189 21.9668 23.3661 21.9572L23.38 21.9552L23.3912 21.9534C23.4142 21.9485 23.4356 21.9399 23.4588 21.9332C23.4819 21.9265 23.5173 21.9178 23.5452 21.9074C23.5732 21.8972 23.5968 21.8835 23.622 21.8716C23.6472 21.8598 23.6727 21.849 23.6969 21.8357C23.7212 21.8224 23.7461 21.8032 23.7709 21.7875C23.7956 21.7717 23.8146 21.7581 23.8351 21.7417C23.8556 21.7254 23.8847 21.6976 23.9081 21.6748C23.9227 21.6606 23.9392 21.6482 23.9536 21.6329C23.9552 21.6309 23.9565 21.6286 23.9575 21.6262C23.9808 21.6005 24.0009 21.5722 24.0218 21.5443C24.0325 21.526 24.0494 21.5112 24.0608 21.4933C24.0776 21.4676 24.0931 21.4411 24.1072 21.4138C24.1198 21.3921 24.1325 21.3704 24.1468 21.346C24.161 21.3215 24.1635 21.2985 24.1724 21.2755C24.1812 21.2525 24.1947 21.2186 24.2024 21.1895C24.2102 21.1605 24.21 21.1468 24.2141 21.1257C24.2208 21.0924 24.2285 21.0587 24.232 21.0246L24.2355 21.0184L26.133 1L28.0303 21.0228L28.0316 21.0299C28.0327 21.0422 28.0359 21.054 28.0376 21.0668C28.0424 21.1043 28.0494 21.1415 28.0585 21.1783C28.0625 21.195 28.0672 21.2104 28.0722 21.2268C28.0818 21.2601 28.0932 21.2929 28.1064 21.325C28.1119 21.339 28.1178 21.3542 28.1244 21.3679C28.1452 21.4135 28.1693 21.4575 28.1967 21.4996L28.2042 21.5039C28.2313 21.5437 28.2611 21.5816 28.2935 21.6173C28.2969 21.6225 28.3008 21.6275 28.3051 21.6321C28.311 21.6384 28.3173 21.6444 28.3239 21.65C28.3495 21.6766 28.3767 21.7018 28.4052 21.7254L28.4383 21.7534C28.477 21.7832 28.5175 21.8106 28.5598 21.8354C28.6025 21.8592 28.6468 21.8802 28.6923 21.8983L28.7334 21.9127C28.7683 21.9252 28.8039 21.9359 28.84 21.9447C28.8483 21.9475 28.8567 21.9498 28.8652 21.9518C28.8714 21.953 28.8776 21.9538 28.8838 21.9543C28.9316 21.9644 28.9802 21.971 29.029 21.9738L29.0359 21.9777C29.0864 21.9801 29.137 21.9787 29.1873 21.9737C29.2027 21.9725 29.2178 21.9702 29.2328 21.9679C29.2678 21.9628 29.3025 21.9556 29.3367 21.9468C29.3529 21.9437 29.3689 21.9398 29.3846 21.9352C29.4217 21.9243 29.4581 21.9117 29.4938 21.8971C29.5059 21.8922 29.5178 21.889 29.5291 21.8837L29.536 21.8813L48.0214 13.4991L31.434 25.1336L31.4304 25.1397C31.4022 25.1598 31.3767 25.1832 31.3508 25.2056C31.3343 25.2197 31.3158 25.2326 31.3007 25.2475C31.2855 25.2624 31.2603 25.2932 31.2404 25.3162C31.2205 25.3393 31.2059 25.3535 31.1915 25.3734C31.1772 25.3932 31.1661 25.4168 31.1518 25.4412C31.1351 25.4669 31.1196 25.4934 31.1055 25.5206C31.0948 25.539 31.0889 25.56 31.0802 25.5795C31.0662 25.6113 31.0516 25.6428 31.0407 25.6755C31.0391 25.6773 31.038 25.6794 31.0371 25.6816C31.0309 25.7016 31.0283 25.7218 31.0228 25.7422C31.0135 25.7737 31.006 25.8057 31.0006 25.8381C30.9966 25.8639 30.9954 25.8894 30.9934 25.9163C30.9914 25.9432 30.987 25.9742 30.9874 26.0034C30.9878 26.0325 30.9912 26.058 30.9934 26.0855C30.9956 26.113 30.9964 26.1415 31.0004 26.1691C31.0044 26.1968 31.0143 26.2269 31.0211 26.256C31.0278 26.2852 31.03 26.3019 31.0372 26.3241L31.0412 26.3345L31.0464 26.3474C31.0616 26.3926 31.0803 26.4366 31.1024 26.4788L31.1096 26.4948C31.133 26.538 31.1595 26.5797 31.1886 26.6195L31.2034 26.6397C31.2336 26.6795 31.2667 26.7172 31.3024 26.7523L31.3161 26.7601C31.3563 26.7988 31.3995 26.8344 31.4453 26.8664L48.024 38.501L29.5375 30.1207L29.5321 30.1175C29.4957 30.1014 29.457 30.0892 29.4194 30.0768C29.4038 30.0724 29.3878 30.0651 29.3721 30.0607C29.3355 30.0516 29.2983 30.0446 29.2608 30.0397C29.2426 30.0365 29.2251 30.0319 29.2071 30.0298C29.1754 30.0261 29.1426 30.0274 29.11 30.0269C29.0773 30.0263 29.0626 30.0234 29.0391 30.0244C29.0156 30.0255 28.9869 30.0308 28.9607 30.0348C28.9345 30.0389 28.9007 30.0404 28.8709 30.0461C28.8709 30.0461 28.8675 30.0441 28.8626 30.0476C28.8396 30.0526 28.8177 30.0618 28.795 30.0678C28.7722 30.0739 28.7365 30.0833 28.7086 30.0936C28.6806 30.1039 28.657 30.1176 28.6312 30.1291C28.6052 30.1405 28.5804 30.1517 28.5569 30.1654C28.5333 30.1791 28.507 30.1975 28.4829 30.2136C28.4589 30.2297 28.4385 30.2426 28.418 30.2589C28.3975 30.2753 28.3691 30.3034 28.3457 30.3263C28.3223 30.3491 28.3143 30.3535 28.2998 30.3688C28.2983 30.3706 28.2971 30.3727 28.2963 30.3749C28.2733 30.401 28.2518 30.4283 28.232 30.4568C28.2213 30.4751 28.2044 30.4899 28.193 30.5078C28.1762 30.5335 28.1607 30.56 28.1466 30.5872C28.1344 30.6083 28.1217 30.63 28.107 30.6551C28.0924 30.6802 28.09 30.7015 28.0814 30.7255C28.0729 30.7496 28.0591 30.7825 28.0514 30.8115C28.0436 30.8406 28.0438 30.8542 28.039 30.8751C28.0324 30.9084 28.0246 30.942 28.0211 30.9762C28.0211 30.9762 28.0188 30.9802 28.0175 30.9823L26.1204 51L24.2279 30.9817Z" fill="#FFCC00" stroke="#254D32" stroke-miterlimit="10" stroke-linejoin="round"/>
<path d="M33.3069 22.13C33.5962 21.6703 33.784 21.1629 33.8595 20.6367C33.935 20.1104 33.8967 19.5757 33.7469 19.0631C33.597 18.5504 33.3385 18.0698 32.9861 17.6489C32.6337 17.228 32.1944 16.8749 31.6932 16.6099C31.1925 16.3444 30.6396 16.1722 30.0663 16.1028C29.493 16.0335 28.9104 16.0685 28.3518 16.2059C27.7932 16.3431 27.2696 16.5802 26.8109 16.9032C26.3521 17.2263 25.9673 17.6291 25.6783 18.0887L22.5959 22.9874L30.2215 27.0271L33.3069 22.13Z" fill="#02E2AC" stroke="#254D32" stroke-miterlimit="10" stroke-linejoin="round"/>
<path d="M22.739 22.9178L19.655 28.1237C19.0711 29.1093 18.9126 30.2806 19.2145 31.38C19.5163 32.4795 20.2537 33.4172 21.2646 33.987C22.2765 34.556 23.4789 34.71 24.6073 34.4152C25.7358 34.1204 26.6978 33.4009 27.2819 32.415L30.366 27.2091L22.739 22.9178Z" fill="#B3FFED" stroke="#254D32" stroke-miterlimit="10" stroke-linejoin="round"/>
<path d="M31.031 16.0682C31.8219 16.6923 32.3543 17.56 32.5344 18.5185C32.7146 19.477 32.5311 20.4648 32.0161 21.308L28.9529 26.3202L30.249 27.0271L33.3122 22.015C33.5993 21.5447 33.7854 21.0257 33.8601 20.4875C33.9347 19.9493 33.8965 19.4024 33.7474 18.8782C33.5983 18.354 33.3414 17.8626 32.9913 17.4322C32.6412 17.0018 32.2048 16.6408 31.7069 16.3697C31.491 16.2515 31.2649 16.1506 31.031 16.0682Z" fill="#11BC92" stroke="#254D32" stroke-miterlimit="10" stroke-linejoin="round"/>
<path d="M29.0382 26.3427L25.9009 31.6337C25.3731 32.5235 24.5397 33.2035 23.5474 33.5536C22.5552 33.9037 21.468 33.9016 20.4772 33.5476C20.674 33.7085 20.8847 33.8524 21.1071 33.9777C22.1365 34.5561 23.3596 34.7126 24.5076 34.413C25.6555 34.1134 26.6341 33.382 27.2284 32.3799L30.3657 27.0889L29.0382 26.3427Z" fill="#11BC92" stroke="#254D32" stroke-miterlimit="10" stroke-linejoin="round"/>
</svg>
