<svg width="133" height="32" viewBox="0 0 133 32" fill="none" xmlns="http://www.w3.org/2000/svg">
<g clip-path="url(#clip0_3869_1289)">
<path d="M21.5645 15.9945C23.9731 14.038 25.9274 11.8826 27.4044 9.56131C29.3586 6.47738 30.347 3.26079 30.347 0H26.9385C26.9385 2.6418 26.1205 5.27254 24.4958 7.82591C23.1097 10.0035 21.1327 12.1036 18.7468 13.9496C17.8492 13.3637 16.9289 12.8111 15.9859 12.3026C21.0532 8.79862 23.8254 4.44352 23.8254 0H20.4169C20.4169 3.4266 17.8946 7.04111 13.509 9.93713C13.1568 10.1693 12.7819 10.4014 12.4183 10.6225C11.6912 10.324 10.964 10.0477 10.2255 9.80449V0.0110535H6.81701V8.83178C5.68084 8.56649 4.53331 8.36753 3.4085 8.22383V0.0110535H0V8.00276V11.3188C2.64727 11.3188 5.45361 11.7831 8.23722 12.6342C5.44225 13.7174 2.54502 14.3254 0 14.3254V17.6415C2.54502 17.6415 5.43088 18.2604 8.23722 19.3326C5.46497 20.1838 2.65863 20.648 0 20.648V23.9641V31.9889H3.4085V23.7762C4.53331 23.6435 5.68084 23.4335 6.81701 23.1682V31.9889H10.2255V22.1955C10.964 21.9413 11.6912 21.676 12.4183 21.3775C12.7933 21.5986 13.1568 21.8197 13.509 22.0629C17.8946 24.9478 20.4169 28.5734 20.4169 32H23.8254C23.8254 27.5565 21.0418 23.2014 15.9859 19.6974C16.9289 19.1889 17.8492 18.6363 18.7468 18.0504C21.1327 19.8853 23.121 21.9965 24.4958 24.1741C26.1091 26.7275 26.9385 29.3582 26.9385 32H30.347C30.347 28.7392 29.3586 25.5226 27.4044 22.4387C25.9387 20.1064 23.9731 17.9509 21.5645 15.9945ZM8.74849 15.9945C10.0664 15.5302 11.3617 14.9665 12.6115 14.3254C13.6795 14.8228 14.7247 15.3865 15.7473 15.9945C14.7361 16.6024 13.6908 17.1661 12.6115 17.6636C11.3617 17.0225 10.0551 16.4698 8.74849 15.9945Z" fill="#1DE9B6"/>
<path d="M56.0728 25.4783L51.5622 20.6148H50.7669V25.4783H46.3472V6.11255H50.7669V16.5803H51.3804L55.7774 11.982H61.1174L55.0389 18.4151L61.7536 25.4894H56.0728V25.4783Z" fill="#1A1D2D"/>
<path d="M76.6715 25.4784H72.2518V24.4062C71.127 25.3899 69.6841 25.8873 67.9344 25.8873C66.0597 25.8873 64.4577 25.2241 63.1398 23.8866C61.8218 22.5492 61.1628 20.8359 61.1628 18.7357C61.1628 16.6355 61.8218 14.9443 63.1398 13.5958C64.4577 12.2473 66.0597 11.573 67.9344 11.573C69.6841 11.573 71.127 12.0704 72.2518 13.0542V11.982H76.6715V25.4784ZM71.2407 21.2448C71.911 20.5927 72.2518 19.7526 72.2518 18.7246C72.2518 17.6967 71.911 16.8898 71.2407 16.2265C70.5703 15.5633 69.775 15.2317 68.8433 15.2317C67.9117 15.2317 67.0596 15.5633 66.4347 16.2155C65.8098 16.8676 65.4916 17.7077 65.4916 18.7357C65.4916 19.7637 65.8098 20.6148 66.4347 21.267C67.0596 21.9081 67.8662 22.2397 68.8433 22.2397C69.7636 22.2176 70.5703 21.897 71.2407 21.2448Z" fill="#1A1D2D"/>
<path d="M89.1466 11.8935L88.9535 16.1933H88.1468C84.9542 16.1933 83.3635 17.8845 83.3635 21.2558V25.4783H78.9438V11.9709H83.3635V14.5574C84.5111 12.7115 86.1017 11.783 88.1468 11.783C88.5217 11.783 88.8512 11.8161 89.1466 11.8935Z" fill="#1A1D2D"/>
<path d="M113.177 13.0873C114.188 14.1043 114.699 15.4196 114.699 17.0334V25.4784H110.302V17.9509C110.302 17.1993 110.086 16.5913 109.643 16.1381C109.2 15.6849 108.643 15.4528 107.984 15.4528C107.155 15.4528 106.496 15.7402 106.007 16.326C105.519 16.9119 105.28 17.7519 105.28 18.8683V25.4894H100.86V17.9509C100.86 17.1993 100.645 16.5913 100.202 16.1381C99.7584 15.6849 99.2017 15.4528 98.52 15.4528C97.6906 15.4528 97.043 15.7402 96.5658 16.326C96.0999 16.9119 95.8613 17.7519 95.8613 18.8683V25.4894H91.4417V11.9709H95.8613V13.2089C96.8725 12.1146 98.2359 11.573 99.9516 11.573C101.997 11.573 103.508 12.3357 104.485 13.8611C105.678 12.3357 107.325 11.573 109.404 11.573C110.904 11.573 112.165 12.0815 113.177 13.0873Z" fill="#1A1D2D"/>
<path d="M132.48 25.4784H128.06V24.4062C126.936 25.3899 125.493 25.8873 123.743 25.8873C121.868 25.8873 120.266 25.2241 118.948 23.8866C117.63 22.5492 116.971 20.8359 116.971 18.7357C116.971 16.6355 117.63 14.9443 118.948 13.5958C120.266 12.2473 121.868 11.573 123.743 11.573C125.493 11.573 126.936 12.0704 128.06 13.0542V11.982H132.48V25.4784ZM127.049 21.2448C127.72 20.5927 128.06 19.7526 128.06 18.7246C128.06 17.6967 127.72 16.8898 127.049 16.2265C126.379 15.5633 125.584 15.2317 124.652 15.2317C123.72 15.2317 122.868 15.5633 122.243 16.2155C121.618 16.8676 121.3 17.7077 121.3 18.7357C121.3 19.7637 121.618 20.6148 122.243 21.267C122.868 21.9081 123.675 22.2397 124.652 22.2397C125.584 22.2176 126.379 21.897 127.049 21.2448Z" fill="#1A1D2D"/>
</g>
<defs>
<clipPath id="clip0_3869_1289">
<rect width="132.48" height="32" fill="white"/>
</clipPath>
</defs>
</svg>
