<svg width="21" height="20" viewBox="0 0 21 20" fill="none" xmlns="http://www.w3.org/2000/svg">
<path d="M11.1667 5.83333L10.237 3.9741C9.9695 3.439 9.83572 3.17144 9.63614 2.97597C9.45965 2.80311 9.24694 2.67164 9.0134 2.59109C8.7493 2.5 8.45017 2.5 7.85191 2.5H4.66667C3.73325 2.5 3.26654 2.5 2.91002 2.68166C2.59641 2.84144 2.34144 3.09641 2.18166 3.41002C2 3.76654 2 4.23325 2 5.16667V5.83333M2 5.83333H14.6667C16.0668 5.83333 16.7669 5.83333 17.3016 6.10582C17.772 6.3455 18.1545 6.72795 18.3942 7.19836C18.6667 7.73314 18.6667 8.4332 18.6667 9.83333V13.5C18.6667 14.9001 18.6667 15.6002 18.3942 16.135C18.1545 16.6054 17.772 16.9878 17.3016 17.2275C16.7669 17.5 16.0668 17.5 14.6667 17.5H6C4.59987 17.5 3.8998 17.5 3.36502 17.2275C2.89462 16.9878 2.51217 16.6054 2.27248 16.135C2 15.6002 2 14.9001 2 13.5V5.83333Z" stroke="#697586" stroke-width="1.5" stroke-linecap="round" stroke-linejoin="round"/>
</svg>
