<svg width="21" height="20" viewBox="0 0 21 20" fill="none" xmlns="http://www.w3.org/2000/svg">
<path d="M14.5 1.66797V10.8346M18.6667 8.16797V4.33464C18.6667 3.40121 18.6667 2.9345 18.4851 2.57798C18.3253 2.26438 18.0703 2.00941 17.7567 1.84962C17.4002 1.66797 16.9335 1.66797 16 1.66797H7.09839C5.88048 1.66797 5.27153 1.66797 4.77969 1.89083C4.34621 2.08725 3.97779 2.40332 3.71774 2.8019C3.42269 3.25413 3.33009 3.856 3.1449 5.05974L2.709 7.89307C2.46475 9.48073 2.34262 10.2746 2.57821 10.8922C2.785 11.4344 3.17392 11.8877 3.67831 12.1745C4.25299 12.5013 5.05615 12.5013 6.66249 12.5013H7.33338C7.80009 12.5013 8.03344 12.5013 8.2117 12.5921C8.3685 12.672 8.49599 12.7995 8.57588 12.9563C8.66671 13.1346 8.66671 13.3679 8.66671 13.8346V16.2798C8.66671 17.4146 9.58671 18.3346 10.7216 18.3346C10.9923 18.3346 11.2376 18.1752 11.3475 17.9279L14.1481 11.6265C14.2755 11.3398 14.3392 11.1965 14.4399 11.0915C14.5289 10.9986 14.6381 10.9276 14.7592 10.884C14.8961 10.8346 15.0529 10.8346 15.3665 10.8346H16C16.9335 10.8346 17.4002 10.8346 17.7567 10.653C18.0703 10.4932 18.3253 10.2382 18.4851 9.92462C18.6667 9.5681 18.6667 9.10139 18.6667 8.16797Z" stroke="#697586" stroke-width="1.5" stroke-linecap="round" stroke-linejoin="round"/>
</svg>
