<svg width="21" height="20" viewBox="0 0 21 20" fill="none" xmlns="http://www.w3.org/2000/svg">
<path d="M9.50049 3.33417H6.00049C4.60036 3.33417 3.90029 3.33417 3.36551 3.60666C2.89511 3.84634 2.51266 4.22879 2.27297 4.6992C2.00049 5.23398 2.00049 5.93404 2.00049 7.33417V14.3342C2.00049 15.7343 2.00049 16.4344 2.27297 16.9691C2.51266 17.4396 2.89511 17.822 3.36551 18.0617C3.90029 18.3342 4.60036 18.3342 6.00049 18.3342H13.0005C14.4006 18.3342 15.1007 18.3342 15.6355 18.0617C16.1059 17.822 16.4883 17.4396 16.728 16.9691C17.0005 16.4344 17.0005 15.7343 17.0005 14.3342V10.8342M7.00047 13.3342H8.39592C8.80357 13.3342 9.0074 13.3342 9.19921 13.2881C9.36927 13.2473 9.53184 13.18 9.68096 13.0886C9.84916 12.9855 9.99328 12.8414 10.2815 12.5531L18.2505 4.58417C18.9408 3.89382 18.9408 2.77453 18.2505 2.08417C17.5601 1.39382 16.4408 1.39382 15.7505 2.08417L7.78152 10.0531C7.49326 10.3414 7.34914 10.4855 7.24607 10.6537C7.15469 10.8028 7.08734 10.9654 7.04652 11.1355C7.00047 11.3273 7.00047 11.5311 7.00047 11.9387V13.3342Z" stroke="#667085" stroke-width="1.5" stroke-linecap="round" stroke-linejoin="round"/>
</svg>
