<svg width="21" height="20" viewBox="0 0 21 20" fill="none" xmlns="http://www.w3.org/2000/svg">
<path d="M6.16667 18.3346V9.16797M2 10.8346V16.668C2 17.5884 2.74619 18.3346 3.66667 18.3346H14.8552C16.0891 18.3346 17.1385 17.4344 17.3261 16.2148L18.2236 10.3814C18.4566 8.86705 17.2849 7.5013 15.7526 7.5013H12.8333C12.3731 7.5013 12 7.12821 12 6.66797V3.72283C12 2.58796 11.08 1.66797 9.94513 1.66797C9.67445 1.66797 9.42915 1.82738 9.31921 2.07474L6.38662 8.67308C6.25286 8.97402 5.95443 9.16797 5.62511 9.16797H3.66667C2.74619 9.16797 2 9.91416 2 10.8346Z" stroke="#697586" stroke-width="1.5" stroke-linecap="round" stroke-linejoin="round"/>
</svg>
